<svg xmlns="http://www.w3.org/2000/svg" xmlns:xlink="http://www.w3.org/1999/xlink" viewBox="0 0 511.99999 512.00001"><defs><linearGradient xlink:href="#a" id="f" x1="436.08" y1="3120.774" x2="479.456" y2="3241.689" gradientUnits="userSpaceOnUse" gradientTransform="matrix(0.42552584,0.0280365,-0.0280365,0.42552584,-897.52946,-559.34863)"/><linearGradient id="a"><stop offset="0" stop-color="#1f1500"/><stop offset="1" stop-color="#1f1500" stop-opacity="0"/></linearGradient><linearGradient xlink:href="#b" id="e" x1="496.264" y1="3131.384" x2="645.672" y2="2955.384" gradientUnits="userSpaceOnUse" gradientTransform="matrix(0.42552584,0.0280365,-0.0280365,0.42552584,-897.52946,-559.34863)"/><linearGradient id="b"><stop offset="0" stop-color="#ffbe2c"/><stop offset=".383" stop-color="#d79500"/><stop offset="1" stop-color="#d09000"/></linearGradient><linearGradient xlink:href="#c" id="d" x1="410.25" y1="3160.617" x2="285.264" y2="3086.617" gradientUnits="userSpaceOnUse" gradientTransform="matrix(0.42552584,0.0280365,-0.0280365,0.42552584,-897.52946,-559.34863)"/><linearGradient id="c"><stop offset="0" stop-color="#ffbe2c"/><stop offset=".445" stop-color="#d79500"/><stop offset="1" stop-color="#c48800"/></linearGradient></defs><g fill-rule="evenodd"><path d="M27.678 392.345L272.958 504l221.103-80.927-235.26-71.105z" opacity=".3" fill="#1c1300"/><path d="M382.05 260.967L262.574 459.8l123.305-18.47 98.08-57.604z" fill="#3f2d04"/><path d="M24.91 342.602l17.42 51.062L270.06 492.93l-6.312-69.317z" fill="#c0880b"/><path d="M-796.22 654.99l-16.668 144.485c-34.537 13.54-51.052 39.31-102.806 54.348l-9.59-56.236z" fill="url(#d)" transform="translate(0,-540.36216) translate(1178.2683,146.33837)"/><path d="M391.267 249.487L512 380.134l-56.092-10.95-73.86-108.217z" fill="#c0880b"/><path d="M154.602 203.276C130.97 237.618 0 349.723 0 349.723L251.085 456.92c64.828-67.952 101.788-137.74 140.182-207.433-69.948.254-169.773-.09-236.665-46.21z" fill="#e69f00"/><path d="M-796.22 654.99c2.307 51.145 2.52 105.868 20.89 129.558 26.54 10.83 46.943-.727 81.023-6.798l3.482-13.8z" fill="url(#e)" transform="translate(0,-540.36216) translate(1178.2683,146.33837)"/><path d="M483.96 383.726L262.576 459.8l7.487 33.13 203.4-69.1z" fill="#d09000"/><path d="M-729.23 789.75l-50.495 17.35 7.896 16.238c7.396-18.183 25.967-24.89 42.6-33.588zm-85.884 29.512l-35.737 12.28 35.9 5.054-.164-17.334z" opacity=".3" fill="url(#f)" transform="translate(0,-540.36216) translate(1178.2683,146.33837)"/></g></svg>