<svg xmlns="http://www.w3.org/2000/svg" viewBox="0 0 511.99999 512.00001"><g fill-rule="evenodd"><path d="M206.177 499.58C150.414 467.967 93.98 438.312.28 442.016c0 0 136.157-253.497 261.245-257.925 102.908-3.643-55.348 315.487-55.348 315.487z" fill="#d7583f"/><path d="M511.7 415.45l-305.523 86.343c13.486.674 4.582-304.41 83.022-315.487 78.59-11.1 222.5 229.143 222.5 229.143z" fill="#cf472b"/><path d="M494.63 388.28c10.698 16.55 17.07 27.17 17.07 27.17l-305.523 86.343C142.17 474.61 59.955 458.703.28 442.017c0 0 4.818-9.76 17.123-30 13.23 3.886 191.148 52.18 195.415 53.246 3.733.933 215.06-58.243 281.812-76.984z" fill="#1b2207" stroke="#000" stroke-width=".39171426000000004"/><path d="M194 252.724l18.818 130.623-5.535 59.776-167.706-48.706 31.55-48.707z" fill="#a73822"/><path d="M211.178 371.968l1.64 11.38-5.534 59.776-141.34-41.627 145.234-29.53z" fill="#1b2207"/><path d="M262.72 184.064c7.38-.083 13.37 1.552 18.137 4.647 2.665-1.18 5.444-1.995 8.342-2.404.614-.087 1.233-.158 1.856-.214 20.98 4.352 41.367 13.915 61.012 27.13 2.017 1.637 4.04 3.333 6.07 5.083-46.703-3.688-83.547 5.063-110.45 12.557-23.433-10.387-38.863-17.665-67.897-13.66 26.758-19.38 54.508-32.146 81.735-33.11.402-.014.8-.023 1.194-.027z" opacity=".3" fill="#141804"/><path d="M360.046 212.873c-47.35-3.968-80.766 2.397-107.93 9.963-23.632-10.474-42.99-15.304-72.507-11.07 63.993-51.204 125.27-38.907 180.436 1.107z" fill="#de735e"/><path d="M194.525 252.724c-32.5 37.597-59.113 70.29-121.74 90.495-7.262 17.155-12.486 42.876-33.76 51.058l32.1-52.996z" fill="#dd6b54"/><path d="M194.427 251.923c-7.663 48.197-.87 80.892 17.612 131.306-6.256 13.633-9.574 36.055-3.328 60.66l5.675-62.227z" fill="#dd6b54"/></g></svg>