<svg xmlns="http://www.w3.org/2000/svg" xmlns:xlink="http://www.w3.org/1999/xlink" viewBox="0 0 511.99999 512.00001"><defs><linearGradient gradientTransform="matrix(1.4295726,0,0,1.4295726,-2114.2973,-2119.5699)" xlink:href="#a" id="c" x1="1399.089" y1="2032.039" x2="1404.849" y2="2061.683" gradientUnits="userSpaceOnUse"/><linearGradient id="a"><stop offset="0" stop-color="#391639"/><stop offset="1" stop-color="#391639" stop-opacity="0"/></linearGradient><linearGradient gradientTransform="matrix(1.4295726,0,0,1.4295726,-2114.2973,-2119.5699)" xlink:href="#a" id="b" x1="1283.864" y1="1995.835" x2="1268.121" y2="2047.502" gradientUnits="userSpaceOnUse"/></defs><g fill-rule="evenodd"><path d="M16.258 377.515L0 407.965C87.943 456.53 188.758 483.89 292.763 506L512 421.73l-15.71-26.133-196.813 70.115c-94.406-33.746-188.813-67.596-283.22-88.197z" fill="#391639"/><path d="M4.17 374.158c90.042 45.63 191.993 69.82 295.307 91.554 20.598-90.266 49.393-177.638 60.433-271.277-57.708-37.738-111.275-89.096-217.558-33.574z" fill="#cf86cf"/><path d="M299.477 465.712l196.814-70.115-136.38-201.162z" fill="#bf5ebf"/><path d="M365.994 203.408l-4.373.914-3.063.64 43.556 224.186 7.843-2.794z" style="line-height:normal;text-indent:0;text-align:start;text-decoration-line:none;text-decoration-style:solid;text-decoration-color:#000000;text-transform:none;block-progression:tb;isolation:auto;mix-blend-mode:normal" color="#000" font-family="sans-serif" white-space="normal" overflow="visible" solid-color="#000000" fill="#391639"/><path d="M-395.438 761.148c78.71 35.48 163.52 43.51 247.383 55.798l-46.326-75.423-152.966-14.296z" fill="url(#b)" transform="translate(0,-540.36216) translate(484.78879,21.88816)"/><path d="M89.35 242.674c76.89-17.614 163.364 27.067 247.384 55.798 20.598-90.266 23.176-104.037 23.176-104.037-57.708-37.738-111.275-89.096-217.558-33.574z" fill="#e09fe0"/><path d="M-148.055 816.946c26.894 5.174 54.3 16.762 77.53-23.864l-43.673-7.704z" fill="url(#c)" transform="translate(0,-540.36216) translate(484.78879,21.88816)"/><path d="M359.91 194.435l-23.176 104.037c41.325-4.696 72.268-11.577 77.53-23.864z" fill="#cb7dcb"/></g></svg>