<svg xmlns="http://www.w3.org/2000/svg" xmlns:xlink="http://www.w3.org/1999/xlink" viewBox="0 0 511.99999 512.00001"><defs><linearGradient id="b"><stop offset="0" stop-color="#00ac16"/><stop offset="1" stop-color="#16620c"/></linearGradient><radialGradient xlink:href="#a" id="g" gradientUnits="userSpaceOnUse" gradientTransform="matrix(1.0481883,0,0,1.0481883,-781.45069,235.38951)" cx="845.14" cy="453.254" fx="845.14" fy="453.254" r="73"/><radialGradient xlink:href="#a" id="e" gradientUnits="userSpaceOnUse" gradientTransform="matrix(1.0151746,0,0,1.0151746,-584.32539,126.55497)" cx="845.14" cy="453.254" fx="845.14" fy="453.254" r="73"/><radialGradient xlink:href="#b" id="d" gradientUnits="userSpaceOnUse" gradientTransform="matrix(0.93685417,-0.02637347,0.03174603,1.1277015,-542.99223,116.63008)" cx="820.515" cy="599.362" fx="820.515" fy="599.362" r="90"/><radialGradient xlink:href="#a" id="c" gradientUnits="userSpaceOnUse" gradientTransform="matrix(0.80732158,0,0,0.80732158,-501.08199,252.10684)" cx="840.278" cy="454.435" fx="840.278" fy="454.435" r="73"/><radialGradient xlink:href="#a" id="f" gradientUnits="userSpaceOnUse" gradientTransform="matrix(1.0333218,2.5818929e-7,-3.1727489e-7,1.2697934,-649.22701,-130.87825)" cx="972.881" cy="670.328" fx="972.881" fy="670.328" r="90"/><linearGradient id="a"><stop offset="0" stop-color="#00c018"/><stop offset="1" stop-color="#17680d"/></linearGradient></defs><path style="isolation:auto;mix-blend-mode:normal" color="#000" overflow="visible" solid-color="#000000" fill="none" d="M0 0h512v512H0z"/><g transform="translate(0,-540.36216)"><path style="isolation:auto;mix-blend-mode:normal" d="M293.25 933.295c-19.98.01-38.075 6.297-46.18 16.048-5.875-1.7-12.45-2.59-19.134-2.592-22.21 0-40.213 9.615-40.213 21.475.013 2.112.61 4.212 1.77 6.23-9.906-3.566-21.58-5.474-33.53-5.477-33.148 0-60.02 14.35-60.02 32.05 0 17.702 26.872 32.052 60.02 32.052 18.136-.01 35.29-4.4 46.67-11.94l9.896 2.896c2.352 15.987 27.327 28.32 57.358 28.326 18.92 0 36.63-4.97 47.37-13.287 12.194 4.292 26.474 6.584 41.078 6.595 41.324 0 74.823-17.888 74.823-39.954s-33.5-39.954-74.824-39.954c-5.398.016-10.778.345-16.044.98.992-2.108 1.503-4.272 1.524-6.445 0-14.913-22.64-27.002-50.567-27.002z" color="#000" overflow="visible" opacity=".3" solid-color="#000000" fill="#001d15"/><path d="M242.395 772.78c-2.293 15.658 8.74 122.288-4.586 181.612-2.475 11.014-13.757 31.313-13.757 31.313-12.947 31.054 96.905 34.7 76.807-3.132 0 0-15.922-26.264-19.488-40.706-13.418-54.337-5.732-166.998-5.732-166.998z" fill="#3d2518" fill-rule="evenodd"/><path d="M249.43 893.818c.558 31.314-6.15 67.416-17.467 96.283 21.496-26.01 20.8-63.01 17.467-96.282z" fill="#78492f" fill-rule="evenodd"/><circle cx="194.022" cy="655.253" r="58.934" fill="url(#c)"/><path d="M219.537 757.475l-22.67-67.206c-3.898-9.936 13-16.2 17.76-7.97l27.338 63.396c1.3 11.596-15.29 23.7-22.428 11.78z" fill="#452a1b" fill-rule="evenodd"/><circle r="84.35" cy="801.82" cx="255.502" fill="url(#d)"/><path style="isolation:auto;mix-blend-mode:normal" d="M255.502 717.47a84.35 84.35 0 0 0-20.795 2.676 80.133 40.368 0 0 0-15.32 23.67 80.133 40.368 0 0 0 80.133 40.367 80.133 40.368 0 0 0 37.315-4.672 84.35 84.35 0 0 0-81.333-62.04z" color="#000" overflow="visible" opacity=".3" solid-color="#000000" fill="#001d15"/><path d="M249.67 735.924l20.05-68.033c2.52-10.37 19.95-5.79 19.117 3.682l-16.45 72.114c-3.188 9.636-27.034 3.386-22.716-7.762z" fill="#352015" fill-rule="evenodd"/><circle cx="289.74" cy="633.495" r="74.108" fill="url(#e)"/><path d="M273.1 785.76l77.822-29.508c8.604-6.314 18.99 8.413 12.258 15.125l-78.666 36.957c-13.285 6.64-22.912-18.34-11.413-22.574zM197.432 822.67l-62.2-34.082 7.668-17.894 63.053 28.118c11.222 5.24 2.095 28.695-8.52 23.858z" fill="#3d2518" fill-rule="evenodd"/><circle r="93.388" cy="753.995" cx="374.09" style="isolation:auto;mix-blend-mode:normal;filter-blend-mode:normal;filter-gaussianBlur-deviation:0" fill="url(#f)" color="#000" overflow="visible" solid-color="#000000"/><circle cx="121.04" cy="758.815" r="76.518" fill="url(#g)"/></g></svg>