<svg xmlns="http://www.w3.org/2000/svg" xmlns:xlink="http://www.w3.org/1999/xlink" viewBox="0 0 511.99999 512.00001"><defs><radialGradient xlink:href="#a" id="b" gradientUnits="userSpaceOnUse" gradientTransform="matrix(1.6682404,-0.0025851,0.00565716,3.6507458,-1139.8343,-1184.0188)" cx="810.799" cy="487.08" fx="810.799" fy="487.08" r="90"/><linearGradient id="a"><stop offset="0" stop-color="#00b917"/><stop offset="1" stop-color="#1c7d10"/></linearGradient></defs><path style="isolation:auto;mix-blend-mode:normal" color="#000" overflow="visible" solid-color="#000000" fill="none" d="M0 0h512v512H0z"/><g transform="translate(0,-540.36216)"><ellipse style="isolation:auto;mix-blend-mode:normal" cx="269.92" cy="1009.411" rx="111.195" ry="42.951" color="#000" overflow="visible" opacity=".3" solid-color="#000000" fill="#001d15"/><path d="M231.96 760.25c-4.416 83.122-5.193 164.898-8.14 245.19-2.218 23.54 57.616 28.664 52.632-5.416-.98-79.177-4.203-158.313-7.253-237.437z" fill="#3d2518" fill-rule="evenodd"/><path d="M236.977 903.943c.624 35.078-.687 65.496 0 104.514 5.944-43.933 3.732-67.243 0-104.514z" fill="#78492f" fill-rule="evenodd"/><path d="M373.852 829.047c0 67.093-54.39 121.483-121.484 121.483-67.093 0-121.483-54.39-121.483-121.483s51.363-288.685 118.456-288.685c67.095 0 124.512 221.592 124.512 288.685z" fill="url(#b)"/></g></svg>