<svg xmlns="http://www.w3.org/2000/svg" xmlns:xlink="http://www.w3.org/1999/xlink" viewBox="0 0 511.99999 512.00001"><defs><linearGradient id="b"><stop offset="0" stop-color="#008b11"/><stop offset="1" stop-color="#16660d"/></linearGradient><linearGradient id="c"><stop offset="0" stop-color="#008410"/><stop offset="1" stop-color="#13570b"/></linearGradient><radialGradient xlink:href="#a" id="i" gradientUnits="userSpaceOnUse" gradientTransform="matrix(1.1554207,0,0,1.1554207,-1786.4273,222.40001)" cx="840.073" cy="454.435" fx="840.073" fy="454.435" r="73"/><radialGradient xlink:href="#b" id="g" gradientUnits="userSpaceOnUse" gradientTransform="matrix(1.0449761,0,0,1.0449761,-1579.5058,291.2143)" cx="855.823" cy="450.88" fx="855.823" fy="450.88" r="73"/><radialGradient xlink:href="#c" id="f" gradientUnits="userSpaceOnUse" gradientTransform="matrix(1.2403781,0,0,1.2403781,-1802.7373,213.75154)" cx="831.075" cy="469.679" fx="831.075" fy="469.679" r="73"/><radialGradient xlink:href="#a" id="e" gradientUnits="userSpaceOnUse" gradientTransform="matrix(1.2403781,0,0,1.2403781,-1845.895,-116.41514)" cx="808.574" cy="590.877" fx="808.574" fy="590.877" r="90"/><radialGradient xlink:href="#a" id="d" gradientUnits="userSpaceOnUse" gradientTransform="matrix(1.2403781,0,0,1.2403781,-1763.4495,-160.26913)" cx="817.059" cy="555.522" fx="817.059" fy="555.522" r="90"/><radialGradient xlink:href="#a" id="h" gradientUnits="userSpaceOnUse" gradientTransform="matrix(1.668235,-0.0049548,0.00565716,1.9047141,-1270.7176,-607.27063)" cx="339.298" cy="639.373" fx="339.298" fy="639.373" r="90"/><linearGradient id="a"><stop offset="0" stop-color="#00b917"/><stop offset="1" stop-color="#1c7d10"/></linearGradient></defs><path style="isolation:auto;mix-blend-mode:normal" color="#000" overflow="visible" solid-color="#000000" fill="none" d="M0 0h512v512H0z"/><g transform="translate(0,-540.36216) translate(993.92883,27.896916)"><circle cx="-731.455" cy="624.099" r="111.634" fill="url(#d)"/><path d="M-732.57 1024.465a57.394 21.587 0 0 1-56.945-19.03 61.614 23.174 0 0 1-51.934-22.874 61.614 23.174 0 0 1 32.54-20.42 75.962 28.57 0 0 1-.466-3.07 75.962 28.57 0 0 1 75.962-28.57 75.962 28.57 0 0 1 60.657 11.43 76.806 28.888 0 0 1 .112-.003 76.806 28.888 0 0 1 76.806 28.888 76.806 28.888 0 0 1-17.534 18.34 51.907 19.523 0 0 1 4.03 7.533 51.907 19.523 0 0 1-51.907 19.524 51.907 19.523 0 0 1-22.58-1.962 57.394 21.587 0 0 1-48.74 10.215z" opacity=".3" fill="#001d15"/><path d="M-752.758 745.008c-1.025 9.956 1.63 55.652 1.536 103.527-.012 5.372-.055 10.772-.144 16.152-.4 24.28-1.693 48.156-4.71 67.263-1.79 11.337-9.956 32.23-9.956 32.23-9.37 31.967 70.126 35.72 55.583-3.222 0 0-11.522-27.036-14.102-41.9-9.71-55.933-4.148-171.902-4.148-171.902z" fill="#3d2518" fill-rule="evenodd"/><path d="M-744.525 871.35c.472 32.235-5.21 69.396-14.793 99.11 18.205-26.775 17.615-64.86 14.793-99.11z" fill="#78492f" fill-rule="evenodd"/><circle r="111.634" cy="667.953" cx="-813.9" fill="url(#e)"/><circle cx="-734.772" cy="833.149" r="90.548" fill="url(#f)"/><circle cx="-679.781" cy="813.036" r="76.283" fill="url(#g)"/><circle style="isolation:auto;mix-blend-mode:normal;filter-blend-mode:normal;filter-gaussianBlur-deviation:0" cx="-671.969" cy="668.544" r="121.645" fill="url(#h)" color="#000" overflow="visible" solid-color="#000000"/><circle cx="-791.61" cy="799.373" r="84.346" fill="url(#i)"/></g></svg>